<svg width="375" height="156" viewBox="0 0 375 156" fill="none" xmlns="http://www.w3.org/2000/svg">
    <path
        d="M374.5 0.5V136C374.5 146.77 365.77 155.5 355 155.5H20C9.23045 155.5 0.500001 146.77 0.5 136V0.5H374.5Z"
        fill="url(#paint0_linear_11_344)" />
    <path
        d="M374.5 0.5V136C374.5 146.77 365.77 155.5 355 155.5H20C9.23045 155.5 0.500001 146.77 0.5 136V0.5H374.5Z"
        stroke="black" />
    <path
        d="M374.5 0.5V136C374.5 146.77 365.77 155.5 355 155.5H20C9.23045 155.5 0.500001 146.77 0.5 136V0.5H374.5Z"
        stroke="black" stroke-opacity="0.2" />
    <defs>
        <linearGradient id="paint0_linear_11_344" x1="-9.0658e-07" y1="8" x2="348.5" y2="171"
            gradientUnits="userSpaceOnUse">
            <stop stop-color="#8900FE" />
            <stop offset="1" stop-color="#FFDE59" />
        </linearGradient>
    </defs>
</svg>
